<svg width="96" height="25" viewBox="0 0 96 25" fill="none" xmlns="http://www.w3.org/2000/svg">
<path d="M0.728 24V7.328H5.112V24H0.728ZM2.904 5.344C2.22133 5.344 1.63467 5.09867 1.144 4.608C0.653333 4.11733 0.408 3.53067 0.408 2.848C0.408 2.144 0.653333 1.55733 1.144 1.088C1.63467 0.597333 2.22133 0.351999 2.904 0.351999C3.608 0.351999 4.19467 0.597333 4.664 1.088C5.15467 1.55733 5.4 2.144 5.4 2.848C5.4 3.53067 5.15467 4.11733 4.664 4.608C4.19467 5.09867 3.608 5.344 2.904 5.344ZM8.5405 24V7.328H12.9245V8.704C14.1832 7.57333 15.7405 7.008 17.5965 7.008C18.8978 7.008 20.0392 7.296 21.0205 7.872C22.0232 8.42667 22.8018 9.20533 23.3565 10.208C23.9112 11.1893 24.1885 12.3413 24.1885 13.664V24H19.8045V14.304C19.8045 13.216 19.4952 12.3627 18.8765 11.744C18.2578 11.104 17.4152 10.784 16.3485 10.784C15.6018 10.784 14.9405 10.9333 14.3645 11.232C13.7885 11.5093 13.3085 11.9147 12.9245 12.448V24H8.5405ZM27.5093 24V1.6L31.8933 0.863998V24H27.5093ZM35.3218 24V7.328H39.7058V24H35.3218ZM37.4978 5.344C36.8151 5.344 36.2284 5.09867 35.7378 4.608C35.2471 4.11733 35.0018 3.53067 35.0018 2.848C35.0018 2.144 35.2471 1.55733 35.7378 1.088C36.2284 0.597333 36.8151 0.351999 37.4978 0.351999C38.2018 0.351999 38.7884 0.597333 39.2578 1.088C39.7484 1.55733 39.9938 2.144 39.9938 2.848C39.9938 3.53067 39.7484 4.11733 39.2578 4.608C38.7884 5.09867 38.2018 5.344 37.4978 5.344ZM43.1343 24V7.328H47.5183V8.704C48.7769 7.57333 50.3343 7.008 52.1903 7.008C53.4916 7.008 54.6329 7.296 55.6143 7.872C56.6169 8.42667 57.3956 9.20533 57.9503 10.208C58.5049 11.1893 58.7823 12.3413 58.7823 13.664V24H54.3983V14.304C54.3983 13.216 54.0889 12.3627 53.4703 11.744C52.8516 11.104 52.0089 10.784 50.9423 10.784C50.1956 10.784 49.5343 10.9333 48.9583 11.232C48.3823 11.5093 47.9023 11.9147 47.5183 12.448V24H43.1343ZM70.263 24.32C68.599 24.32 67.0843 23.936 65.719 23.168C64.375 22.4 63.3083 21.3653 62.519 20.064C61.7297 18.7627 61.335 17.3013 61.335 15.68C61.335 14.0587 61.7083 12.5973 62.455 11.296C63.223 9.99467 64.2577 8.96 65.559 8.192C66.8603 7.424 68.311 7.04 69.911 7.04C71.511 7.04 72.9297 7.43467 74.167 8.224C75.4043 9.01333 76.375 10.08 77.079 11.424C77.8043 12.768 78.167 14.2933 78.167 16V17.152H65.815C66.007 17.8133 66.3163 18.4107 66.743 18.944C67.191 19.4773 67.735 19.8933 68.375 20.192C69.0363 20.4907 69.7403 20.64 70.487 20.64C71.2337 20.64 71.9163 20.5227 72.535 20.288C73.175 20.0533 73.719 19.7227 74.167 19.296L77.047 21.92C76.023 22.752 74.967 23.36 73.879 23.744C72.8123 24.128 71.607 24.32 70.263 24.32ZM65.751 14.016H73.847C73.6977 13.3547 73.4203 12.7787 73.015 12.288C72.631 11.776 72.1617 11.3813 71.607 11.104C71.0737 10.8053 70.4763 10.656 69.815 10.656C69.1323 10.656 68.5137 10.7947 67.959 11.072C67.4257 11.3493 66.967 11.744 66.583 12.256C66.199 12.7467 65.9217 13.3333 65.751 14.016Z" fill="white"/>
</svg>
